<?xml version="1.0" encoding="UTF-8"?>
<!-- Generated by Pixelmator Pro 3.6.9 -->
<svg width="520" height="520" viewBox="0 0 520 520" xmlns="http://www.w3.org/2000/svg">
    <path id="path1" fill="#3aa3f0" fill-rule="evenodd" stroke="none" d="M 0 400 C -0 466.27417 53.72583 520 120 520 L 400 520 C 466.27417 520 520 466.27417 520 400 L 520 120 C 520 53.72583 466.27417 0 400 0 L 120 0 C 53.72583 0 0 53.72583 0 120 Z"/>
    <path id="path2" fill="#f6fbfe" fill-rule="evenodd" stroke="none" d="M 95 417.5 C 95 435.449249 109.550743 450 127.5 450 C 145.449249 450 160 435.449249 160 417.5 L 160 247.5 C 160 229.550751 145.449249 215 127.5 215 C 109.550743 215 95 229.550751 95 247.5 Z"/>
    <path id="path3" fill="#f6fbfe" fill-rule="evenodd" stroke="none" d="M 95 235 C 95 326.126984 168.873016 400 260 400 C 351.126984 400 425 326.126984 425 235 C 425 143.873016 351.126984 70 260 70 C 168.873016 70 95 143.873016 95 235 Z"/>
    <path id="path4" fill="#3aa3f0" fill-rule="evenodd" stroke="none" d="M 160 235 C 160 290.228455 204.77153 335 260 335 C 315.228455 335 360 290.228455 360 235 C 360 179.771545 315.228455 135 260 135 C 204.77153 135 160 179.771545 160 235 Z"/>
    <path id="path5" fill="#f6fbfe" fill-rule="evenodd" stroke="none" d="M 225 235 C 225 254.329956 240.670029 270 260 270 C 279.329956 270 295 254.329956 295 235 C 295 215.670044 279.329956 200 260 200 C 240.670029 200 225 215.670044 225 235 Z"/>
</svg>
